<?xml version="1.0" encoding="UTF-8"?>
<svg xmlns="http://www.w3.org/2000/svg" xmlns:xlink="http://www.w3.org/1999/xlink" width="100px" height="100px" viewBox="0 0 100 100" version="1.1">
<g id="surface1">
<path style=" stroke:none;fill-rule:nonzero;fill:rgb(0%,0%,0%);fill-opacity:1;" d="M 65.398438 33.761719 C 64.800781 33.960938 64 34.300781 63.621094 34.5 C 62.878906 34.878906 60.800781 36.738281 60.800781 37.019531 C 60.800781 37.121094 61.558594 37.199219 62.480469 37.199219 L 64.140625 37.199219 L 65.019531 36.320312 C 66.101562 35.238281 67.140625 34.921875 69.121094 35.039062 C 70.21875 35.121094 70.800781 35.28125 71.78125 35.800781 C 74.058594 37.019531 75.421875 38.660156 76.28125 41.238281 C 76.679688 42.398438 76.859375 42.71875 77.21875 42.761719 L 77.660156 42.839844 L 77.539062 39.480469 C 77.460938 37.640625 77.398438 35.519531 77.398438 34.761719 C 77.398438 33.578125 77.359375 33.378906 77.058594 33.441406 C 76.878906 33.480469 76.621094 33.820312 76.5 34.199219 C 76.378906 34.578125 76.039062 35.019531 75.78125 35.179688 C 75.339844 35.421875 75.160156 35.398438 74 34.921875 C 71.058594 33.679688 70.539062 33.539062 68.5 33.480469 C 66.941406 33.421875 66.261719 33.480469 65.398438 33.761719 Z M 65.398438 33.761719 "/>
<path style=" stroke:none;fill-rule:nonzero;fill:rgb(0%,0%,0%);fill-opacity:1;" d="M 19.800781 34.398438 C 19.800781 34.738281 19.941406 34.800781 20.699219 34.800781 C 21.78125 34.800781 22.738281 35.179688 23.300781 35.800781 C 23.679688 36.21875 23.699219 36.558594 23.761719 47.78125 C 23.800781 56.78125 23.761719 59.5 23.558594 60.101562 C 23.199219 61.179688 22.460938 61.660156 21 61.761719 C 19.980469 61.839844 19.800781 61.898438 19.800781 62.21875 C 19.800781 62.578125 20.101562 62.601562 27.320312 62.601562 C 34.359375 62.601562 34.820312 62.578125 34.761719 62.238281 C 34.71875 61.980469 34.421875 61.878906 33.5 61.78125 C 32.101562 61.640625 31.539062 61.378906 31.039062 60.660156 C 30.738281 60.179688 30.699219 59.441406 30.640625 54.460938 L 30.578125 48.800781 L 40.800781 48.800781 L 40.800781 52.398438 L 47.601562 52.398438 L 47.601562 45 L 40.800781 45 L 40.800781 47 L 30.601562 47 L 30.601562 45 L 26.601562 45 L 26.640625 41.140625 L 26.699219 37.300781 L 28.761719 37.238281 C 30.71875 37.179688 30.800781 37.160156 30.800781 36.738281 C 30.800781 36.179688 31.28125 35.480469 31.859375 35.160156 C 32.101562 35.039062 32.839844 34.878906 33.5 34.820312 C 34.378906 34.738281 34.699219 34.621094 34.699219 34.398438 C 34.699219 34.140625 33.71875 34.101562 27.261719 34.039062 C 19.898438 34 19.800781 34 19.800781 34.398438 Z M 19.800781 34.398438 "/>
<path style=" stroke:none;fill-rule:nonzero;fill:rgb(0%,0%,0%);fill-opacity:1;" d="M 36.800781 34.398438 C 36.800781 34.738281 36.941406 34.800781 37.699219 34.800781 C 39.339844 34.800781 40.601562 35.640625 40.601562 36.738281 L 40.601562 37.199219 L 44.121094 37.160156 L 47.640625 37.101562 L 47.878906 36.421875 C 48.199219 35.421875 48.980469 34.941406 50.398438 34.839844 C 51.421875 34.761719 51.601562 34.699219 51.601562 34.378906 C 51.601562 34.019531 51.300781 34 44.199219 34 C 36.941406 34 36.800781 34 36.800781 34.398438 Z M 36.800781 34.398438 "/>
<path style=" stroke:none;fill-rule:nonzero;fill:rgb(0%,0%,0%);fill-opacity:1;" d="M 29.601562 40.898438 C 29.601562 42.460938 29.640625 42.601562 30 42.601562 C 30.320312 42.601562 30.398438 42.460938 30.398438 41.898438 C 30.398438 41.28125 30.460938 41.199219 30.898438 41.199219 C 31.339844 41.199219 31.398438 41.28125 31.398438 41.898438 C 31.398438 42.460938 31.480469 42.601562 31.800781 42.601562 C 32.160156 42.601562 32.199219 42.460938 32.199219 40.898438 C 32.199219 39.339844 32.160156 39.199219 31.800781 39.199219 C 31.480469 39.199219 31.398438 39.339844 31.398438 39.898438 C 31.398438 40.519531 31.339844 40.601562 30.898438 40.601562 C 30.460938 40.601562 30.398438 40.519531 30.398438 39.898438 C 30.398438 39.339844 30.320312 39.199219 30 39.199219 C 29.640625 39.199219 29.601562 39.339844 29.601562 40.898438 Z M 29.601562 40.898438 "/>
<path style=" stroke:none;fill-rule:nonzero;fill:rgb(0%,0%,0%);fill-opacity:1;" d="M 34.199219 40.898438 C 34.199219 42.460938 34.238281 42.601562 34.601562 42.601562 C 34.960938 42.601562 35 42.460938 35 40.898438 C 35 39.339844 34.960938 39.199219 34.601562 39.199219 C 34.238281 39.199219 34.199219 39.339844 34.199219 40.898438 Z M 34.199219 40.898438 "/>
<path style=" stroke:none;fill-rule:nonzero;fill:rgb(0%,0%,0%);fill-opacity:1;" d="M 37.519531 39.640625 C 36.71875 40.339844 36.660156 41.199219 37.300781 41.960938 C 37.699219 42.441406 38 42.601562 38.5 42.601562 C 39.320312 42.601562 40.199219 41.921875 40.199219 41.28125 C 40.199219 40.859375 40.121094 40.800781 39.398438 40.800781 C 38.820312 40.800781 38.601562 40.878906 38.601562 41.101562 C 38.601562 41.28125 38.78125 41.398438 39.019531 41.398438 C 39.378906 41.398438 39.398438 41.441406 39.199219 41.699219 C 38.859375 42.101562 38.339844 42.078125 37.941406 41.640625 C 37.460938 41.101562 37.519531 40.460938 38.101562 40.078125 C 38.558594 39.78125 38.640625 39.78125 39.121094 40.078125 C 39.398438 40.28125 39.78125 40.398438 39.960938 40.359375 C 40.238281 40.300781 40.21875 40.199219 39.761719 39.738281 C 39.078125 39.058594 38.21875 39.039062 37.519531 39.640625 Z M 37.519531 39.640625 "/>
<path style=" stroke:none;fill-rule:nonzero;fill:rgb(0%,0%,0%);fill-opacity:1;" d="M 42.199219 40.898438 C 42.199219 42.238281 42.261719 42.601562 42.480469 42.601562 C 42.660156 42.601562 42.800781 42.359375 42.839844 41.941406 C 42.878906 41.398438 43 41.28125 43.460938 41.238281 C 43.960938 41.179688 44 41.21875 44 41.878906 C 44 42.460938 44.078125 42.601562 44.398438 42.601562 C 44.761719 42.601562 44.800781 42.460938 44.800781 40.898438 C 44.800781 39.339844 44.761719 39.199219 44.398438 39.199219 C 44.078125 39.199219 44 39.339844 44 39.898438 C 44 40.539062 43.960938 40.601562 43.398438 40.601562 C 42.839844 40.601562 42.800781 40.539062 42.800781 39.898438 C 42.800781 39.421875 42.699219 39.199219 42.5 39.199219 C 42.261719 39.199219 42.199219 39.519531 42.199219 40.898438 Z M 42.199219 40.898438 "/>
<path style=" stroke:none;fill-rule:nonzero;fill:rgb(0%,0%,0%);fill-opacity:1;" d="M 46.800781 40.898438 L 46.800781 42.601562 L 47.699219 42.601562 C 48.71875 42.601562 49.019531 42.078125 48.058594 41.960938 C 47.519531 41.898438 47.5 41.859375 47.441406 40.539062 C 47.398438 39.519531 47.320312 39.199219 47.101562 39.199219 C 46.859375 39.199219 46.800781 39.539062 46.800781 40.898438 Z M 46.800781 40.898438 "/>
<path style=" stroke:none;fill-rule:nonzero;fill:rgb(0%,0%,0%);fill-opacity:1;" d="M 51.421875 39.640625 C 51.320312 39.898438 51.019531 40.660156 50.738281 41.339844 C 50.238281 42.558594 50.238281 42.601562 50.621094 42.601562 C 50.839844 42.601562 51.058594 42.460938 51.121094 42.300781 C 51.199219 42.121094 51.5 42 51.898438 42 C 52.300781 42 52.601562 42.121094 52.679688 42.300781 C 52.738281 42.460938 52.960938 42.601562 53.179688 42.601562 C 53.539062 42.601562 53.519531 42.5 52.898438 40.941406 C 52.199219 39.21875 51.738281 38.800781 51.421875 39.640625 Z M 52.199219 41.039062 C 52.199219 41.238281 52.058594 41.398438 51.898438 41.398438 C 51.578125 41.398438 51.519531 41.058594 51.71875 40.5 C 51.820312 40.238281 51.878906 40.21875 52.019531 40.441406 C 52.121094 40.578125 52.199219 40.859375 52.199219 41.039062 Z M 52.199219 41.039062 "/>
<path style=" stroke:none;fill-rule:nonzero;fill:rgb(0%,0%,0%);fill-opacity:1;" d="M 55.199219 40.898438 C 55.199219 42.460938 55.238281 42.601562 55.578125 42.601562 C 55.921875 42.601562 55.980469 42.441406 56.039062 41.640625 L 56.101562 40.699219 L 56.601562 41.640625 C 56.898438 42.261719 57.21875 42.601562 57.441406 42.601562 C 57.761719 42.601562 57.800781 42.398438 57.800781 40.898438 C 57.800781 39.539062 57.738281 39.199219 57.519531 39.199219 C 57.300781 39.199219 57.199219 39.5 57.160156 40.238281 L 57.101562 41.28125 L 56.539062 40.238281 C 56.160156 39.539062 55.839844 39.199219 55.578125 39.199219 C 55.238281 39.199219 55.199219 39.359375 55.199219 40.898438 Z M 55.199219 40.898438 "/>
<path style=" stroke:none;fill-rule:nonzero;fill:rgb(0%,0%,0%);fill-opacity:1;" d="M 59.800781 40.878906 L 59.800781 42.601562 L 60.578125 42.601562 C 61.699219 42.601562 62.441406 41.941406 62.441406 40.921875 C 62.441406 39.898438 61.898438 39.378906 60.71875 39.261719 L 59.800781 39.140625 Z M 61.601562 40.378906 C 61.878906 40.941406 61.859375 41.140625 61.398438 41.601562 C 60.78125 42.21875 60.601562 42.078125 60.601562 41 C 60.601562 40.140625 60.660156 40 61 40 C 61.199219 40 61.480469 40.179688 61.601562 40.378906 Z M 61.601562 40.378906 "/>
<path style=" stroke:none;fill-rule:nonzero;fill:rgb(0%,0%,0%);fill-opacity:1;" d="M 64.398438 40.898438 L 64.398438 42.601562 L 65.300781 42.601562 C 66.320312 42.601562 66.621094 42.078125 65.660156 41.960938 C 65.320312 41.921875 65.101562 41.78125 65.101562 41.601562 C 65.101562 41.421875 65.320312 41.28125 65.660156 41.238281 C 66.421875 41.140625 66.378906 40.601562 65.601562 40.601562 C 65.199219 40.601562 65 40.5 65 40.300781 C 65 40.101562 65.199219 40 65.601562 40 C 66.058594 40 66.199219 39.921875 66.199219 39.601562 C 66.199219 39.261719 66.058594 39.199219 65.300781 39.199219 L 64.398438 39.199219 Z M 64.398438 40.898438 "/>
<path style=" stroke:none;fill-rule:nonzero;fill:rgb(0%,0%,0%);fill-opacity:1;" d="M 68.199219 40.898438 C 68.199219 42.460938 68.238281 42.601562 68.601562 42.601562 C 68.898438 42.601562 69 42.460938 69 42.039062 L 69 41.5 L 69.460938 42.078125 C 69.738281 42.421875 70.058594 42.621094 70.28125 42.578125 C 70.621094 42.5 70.621094 42.480469 70.238281 42 C 69.839844 41.519531 69.839844 41.5 70.21875 41.019531 C 70.921875 40.140625 70.28125 39.199219 68.960938 39.199219 L 68.199219 39.199219 Z M 69.699219 40.300781 C 69.699219 40.519531 69.539062 40.71875 69.359375 40.761719 C 69.078125 40.820312 69 40.699219 69 40.300781 C 69 39.898438 69.078125 39.78125 69.359375 39.839844 C 69.539062 39.878906 69.699219 40.078125 69.699219 40.300781 Z M 69.699219 40.300781 "/>
<path style=" stroke:none;fill-rule:nonzero;fill:rgb(0%,0%,0%);fill-opacity:1;" d="M 60.519531 45.640625 C 61.441406 47.421875 63.980469 49.238281 69.359375 52 C 70.71875 52.699219 72.21875 53.621094 72.71875 54.058594 C 74.898438 55.980469 75.140625 58.480469 73.28125 60.339844 C 71.640625 61.980469 68.71875 62.261719 66.121094 61.019531 C 64.878906 60.421875 64.738281 60.398438 62.121094 60.398438 L 59.398438 60.398438 L 59.398438 61.800781 C 59.398438 63.480469 59.601562 63.558594 60.761719 62.398438 C 61.738281 61.421875 62.421875 61.359375 64.261719 62.101562 C 66.238281 62.921875 67.621094 63.199219 69.539062 63.199219 C 72.660156 63.199219 74.820312 62.359375 76.820312 60.398438 C 78.839844 58.421875 79.71875 55.761719 79.238281 53.179688 C 78.679688 50.121094 76.878906 48.121094 72.578125 45.738281 L 71.261719 45 L 60.179688 45 Z M 60.519531 45.640625 "/>
<path style=" stroke:none;fill-rule:nonzero;fill:rgb(0%,0%,0%);fill-opacity:1;" d="M 37.519531 54.78125 C 37 55.359375 37.199219 55.859375 38.160156 56.300781 C 38.621094 56.519531 39 56.800781 39 56.941406 C 39 57.300781 38.019531 57.261719 37.878906 56.898438 C 37.738281 56.558594 37.28125 56.5 37.101562 56.800781 C 36.878906 57.140625 37.78125 57.800781 38.460938 57.800781 C 39.398438 57.800781 39.839844 57.421875 39.761719 56.699219 C 39.71875 56.199219 39.558594 56.058594 38.859375 55.839844 C 38.378906 55.679688 38 55.441406 38 55.28125 C 38 54.941406 38.621094 54.898438 38.941406 55.21875 C 39.058594 55.339844 39.320312 55.398438 39.519531 55.359375 C 39.859375 55.300781 39.859375 55.261719 39.441406 54.839844 C 38.898438 54.300781 37.980469 54.261719 37.519531 54.78125 Z M 37.519531 54.78125 "/>
<path style=" stroke:none;fill-rule:nonzero;fill:rgb(0%,0%,0%);fill-opacity:1;" d="M 42.621094 54.839844 C 42.519531 55.101562 42.21875 55.859375 41.941406 56.539062 C 41.441406 57.761719 41.441406 57.800781 41.820312 57.800781 C 42.039062 57.800781 42.261719 57.660156 42.320312 57.5 C 42.398438 57.320312 42.699219 57.199219 43.101562 57.199219 C 43.5 57.199219 43.800781 57.320312 43.878906 57.5 C 43.941406 57.660156 44.160156 57.800781 44.378906 57.800781 C 44.738281 57.800781 44.71875 57.699219 44.101562 56.140625 C 43.398438 54.421875 42.941406 54 42.621094 54.839844 Z M 43.398438 56.238281 C 43.398438 56.441406 43.261719 56.601562 43.101562 56.601562 C 42.78125 56.601562 42.71875 56.261719 42.921875 55.699219 C 43.019531 55.441406 43.078125 55.421875 43.21875 55.640625 C 43.320312 55.78125 43.398438 56.058594 43.398438 56.238281 Z M 43.398438 56.238281 "/>
<path style=" stroke:none;fill-rule:nonzero;fill:rgb(0%,0%,0%);fill-opacity:1;" d="M 46.398438 56.101562 C 46.398438 57.660156 46.441406 57.800781 46.78125 57.800781 C 47.121094 57.800781 47.179688 57.640625 47.238281 56.839844 L 47.300781 55.898438 L 47.800781 56.839844 C 48.101562 57.460938 48.421875 57.800781 48.640625 57.800781 C 48.960938 57.800781 49 57.601562 49 56.101562 C 49 54.738281 48.941406 54.398438 48.71875 54.398438 C 48.5 54.398438 48.398438 54.699219 48.359375 55.441406 L 48.300781 56.480469 L 47.738281 55.441406 C 47.359375 54.738281 47.039062 54.398438 46.78125 54.398438 C 46.441406 54.398438 46.398438 54.558594 46.398438 56.101562 Z M 46.398438 56.101562 "/>
<path style=" stroke:none;fill-rule:nonzero;fill:rgb(0%,0%,0%);fill-opacity:1;" d="M 50.800781 54.800781 C 50.800781 55.101562 50.941406 55.199219 51.300781 55.199219 C 51.78125 55.199219 51.800781 55.238281 51.800781 56.5 C 51.800781 57.519531 51.859375 57.800781 52.101562 57.800781 C 52.339844 57.800781 52.398438 57.519531 52.398438 56.5 C 52.398438 55.238281 52.421875 55.199219 52.898438 55.199219 C 53.261719 55.199219 53.398438 55.101562 53.398438 54.800781 C 53.398438 54.441406 53.261719 54.398438 52.101562 54.398438 C 50.941406 54.398438 50.800781 54.441406 50.800781 54.800781 Z M 50.800781 54.800781 "/>
<path style=" stroke:none;fill-rule:nonzero;fill:rgb(0%,0%,0%);fill-opacity:1;" d="M 55.621094 54.921875 C 54.398438 55.941406 55.101562 57.800781 56.699219 57.800781 C 58.300781 57.800781 59 55.941406 57.78125 54.921875 C 57.441406 54.640625 56.960938 54.398438 56.699219 54.398438 C 56.441406 54.398438 55.960938 54.640625 55.621094 54.921875 Z M 57.359375 55.441406 C 57.921875 56 57.5 57 56.699219 57 C 56.160156 57 55.800781 56.640625 55.800781 56.101562 C 55.800781 55.558594 56.160156 55.199219 56.699219 55.199219 C 56.941406 55.199219 57.21875 55.300781 57.359375 55.441406 Z M 57.359375 55.441406 "/>
<path style=" stroke:none;fill-rule:nonzero;fill:rgb(0%,0%,0%);fill-opacity:1;" d="M 60.640625 54.71875 C 59.921875 55.21875 60.140625 55.820312 61.261719 56.359375 C 61.78125 56.601562 62.160156 56.898438 62.101562 57 C 61.898438 57.320312 61.058594 57.238281 60.921875 56.898438 C 60.761719 56.460938 60.199219 56.539062 60.199219 57 C 60.199219 57.839844 62.140625 58.140625 62.679688 57.378906 C 63.121094 56.738281 62.800781 56.140625 61.839844 55.839844 C 61.378906 55.679688 61 55.480469 61 55.378906 C 61 55.078125 61.601562 54.921875 61.859375 55.179688 C 62.121094 55.441406 62.800781 55.480469 62.800781 55.21875 C 62.800781 54.921875 61.960938 54.398438 61.5 54.398438 C 61.28125 54.398438 60.878906 54.539062 60.640625 54.71875 Z M 60.640625 54.71875 "/>
<path style=" stroke:none;fill-rule:nonzero;fill:rgb(0%,0%,0%);fill-opacity:1;" d="M 40.238281 60.820312 C 39.878906 61.378906 38.800781 61.800781 37.699219 61.800781 C 36.941406 61.800781 36.800781 61.859375 36.800781 62.199219 C 36.800781 62.601562 36.941406 62.601562 44.199219 62.601562 C 51.460938 62.601562 51.601562 62.601562 51.601562 62.199219 C 51.601562 61.859375 51.460938 61.800781 50.699219 61.800781 C 49.640625 61.800781 48.660156 61.441406 48.121094 60.820312 C 47.761719 60.421875 47.558594 60.398438 44.121094 60.398438 C 40.660156 60.398438 40.480469 60.421875 40.238281 60.820312 Z M 40.238281 60.820312 "/>
</g>
</svg>
