<?xml version="1.0" standalone="no"?>
<!DOCTYPE svg PUBLIC "-//W3C//DTD SVG 20010904//EN"
 "http://www.w3.org/TR/2001/REC-SVG-20010904/DTD/svg10.dtd">
<svg version="1.0" xmlns="http://www.w3.org/2000/svg"
 width="500.000000pt" height="500.000000pt" viewBox="0 0 500.000000 500.000000"
 preserveAspectRatio="xMidYMid meet">

<g transform="translate(0.000000,500.000000) scale(0.100000,-0.100000)"
fill="#000000" stroke="none">
<path d="M3270 3312 c-30 -10 -70 -27 -89 -37 -37 -19 -141 -112 -141 -126 0
-5 38 -9 84 -9 l83 0 44 44 c54 54 106 70 205 64 55 -4 84 -12 133 -38 114
-61 182 -143 225 -272 20 -58 29 -74 47 -76 l22 -4 -6 168 c-4 92 -7 198 -7
236 0 59 -2 69 -17 66 -9 -2 -22 -19 -28 -38 -6 -19 -23 -41 -36 -49 -22 -12
-31 -11 -89 13 -147 62 -173 69 -275 72 -78 3 -112 0 -155 -14z"/>
<path d="M990 3280 c0 -17 7 -20 45 -20 54 0 102 -19 130 -50 19 -21 20 -38
23 -599 2 -450 0 -586 -10 -616 -18 -54 -55 -78 -128 -83 -51 -4 -60 -7 -60
-23 0 -18 15 -19 376 -19 352 0 375 1 372 18 -2 13 -17 18 -63 23 -70 7 -98
20 -123 56 -15 24 -17 61 -20 310 l-3 283 255 0 256 0 0 -90 0 -90 170 0 170
0 0 185 0 185 -170 0 -170 0 0 -50 0 -50 -255 0 -255 0 0 50 0 50 -100 0 -100
0 2 193 3 192 103 3 c98 3 102 4 102 25 0 28 24 63 53 79 12 6 49 14 82 17 44
4 60 10 60 21 0 13 -49 15 -372 18 -368 2 -373 2 -373 -18z"/>
<path d="M1840 3280 c0 -17 7 -20 45 -20 82 0 145 -42 145 -97 l0 -23 176 2
176 3 12 34 c16 50 55 74 126 79 51 4 60 7 60 23 0 18 -15 19 -370 19 -363 0
-370 0 -370 -20z"/>
<path d="M1480 2955 c0 -78 2 -85 20 -85 16 0 20 7 20 35 0 31 3 35 25 35 22
0 25 -4 25 -35 0 -28 4 -35 20 -35 18 0 20 7 20 85 0 78 -2 85 -20 85 -16 0
-20 -7 -20 -35 0 -31 -3 -35 -25 -35 -22 0 -25 4 -25 35 0 28 -4 35 -20 35
-18 0 -20 -7 -20 -85z"/>
<path d="M1710 2955 c0 -78 2 -85 20 -85 18 0 20 7 20 85 0 78 -2 85 -20 85
-18 0 -20 -7 -20 -85z"/>
<path d="M1876 3018 c-40 -35 -43 -78 -11 -116 20 -24 35 -32 60 -32 41 0 85
34 85 66 0 21 -4 24 -40 24 -29 0 -40 -4 -40 -15 0 -9 9 -15 21 -15 18 0 19
-2 9 -15 -17 -20 -43 -19 -63 3 -24 27 -21 59 8 78 23 15 27 15 51 0 14 -10
33 -16 42 -14 14 3 13 8 -10 31 -34 34 -77 35 -112 5z"/>
<path d="M2110 2955 c0 -67 3 -85 14 -85 9 0 16 12 18 33 2 27 8 33 31 35 25
3 27 1 27 -32 0 -29 4 -36 20 -36 18 0 20 7 20 85 0 78 -2 85 -20 85 -16 0
-20 -7 -20 -35 0 -32 -2 -35 -30 -35 -28 0 -30 3 -30 35 0 24 -5 35 -15 35
-12 0 -15 -16 -15 -85z"/>
<path d="M2340 2955 l0 -85 45 0 c51 0 66 26 18 32 -27 3 -28 5 -31 71 -2 51
-6 67 -17 67 -12 0 -15 -17 -15 -85z"/>
<path d="M2571 3018 c-5 -13 -20 -51 -34 -85 -25 -61 -25 -63 -6 -63 11 0 22
7 25 15 4 9 19 15 39 15 20 0 35 -6 39 -15 3 -8 14 -15 25 -15 18 0 17 5 -14
83 -35 86 -58 107 -74 65z m39 -70 c0 -10 -7 -18 -15 -18 -16 0 -19 17 -9 45
5 13 8 14 15 3 5 -7 9 -21 9 -30z"/>
<path d="M2760 2955 c0 -78 2 -85 19 -85 17 0 20 8 23 48 l3 47 25 -47 c15
-31 31 -48 42 -48 16 0 18 10 18 85 0 68 -3 85 -14 85 -11 0 -16 -15 -18 -52
l-3 -52 -28 52 c-19 35 -35 52 -48 52 -17 0 -19 -8 -19 -85z"/>
<path d="M2990 2956 l0 -86 39 0 c56 0 93 33 93 84 0 51 -27 77 -86 83 l-46 6
0 -87z m90 25 c14 -28 13 -38 -10 -61 -31 -31 -40 -24 -40 30 0 43 3 50 20 50
10 0 24 -9 30 -19z"/>
<path d="M3220 2955 l0 -85 45 0 c51 0 66 26 18 32 -17 2 -28 9 -28 18 0 9 11
16 28 18 38 5 36 32 -3 32 -20 0 -30 5 -30 15 0 10 10 15 30 15 23 0 30 4 30
20 0 17 -7 20 -45 20 l-45 0 0 -85z"/>
<path d="M3410 2955 c0 -78 2 -85 20 -85 15 0 20 7 20 28 l0 27 23 -29 c14
-17 30 -27 41 -25 17 4 17 5 -2 29 -20 24 -20 25 -1 49 35 44 3 91 -63 91
l-38 0 0 -85z m75 30 c0 -11 -8 -21 -17 -23 -14 -3 -18 3 -18 23 0 20 4 26 18
23 9 -2 17 -12 17 -23z"/>
<path d="M3026 2718 c46 -89 173 -180 442 -318 68 -35 143 -81 168 -103 109
-96 121 -221 28 -314 -82 -82 -228 -96 -358 -34 -62 30 -69 31 -200 31 l-136
0 0 -70 c0 -84 10 -88 68 -30 49 49 83 52 175 15 99 -41 168 -55 264 -55 156
0 264 42 364 140 101 99 145 232 121 361 -28 153 -118 253 -333 372 l-66 37
-277 0 -277 0 17 -32z"/>
<path d="M1876 2261 c-26 -29 -16 -54 32 -76 23 -11 42 -25 42 -32 0 -18 -49
-16 -56 2 -7 17 -30 20 -39 5 -11 -17 34 -50 68 -50 47 0 69 19 65 55 -2 25
-10 32 -45 43 -24 8 -43 20 -43 28 0 17 31 19 47 3 6 -6 19 -9 29 -7 17 3 17
5 -4 26 -27 27 -73 29 -96 3z"/>
<path d="M2131 2258 c-5 -13 -20 -51 -34 -85 -25 -61 -25 -63 -6 -63 11 0 22
7 25 15 4 9 19 15 39 15 20 0 35 -6 39 -15 3 -8 14 -15 25 -15 18 0 17 5 -14
83 -35 86 -58 107 -74 65z m39 -70 c0 -10 -7 -18 -15 -18 -16 0 -19 17 -9 45
5 13 8 14 15 3 5 -7 9 -21 9 -30z"/>
<path d="M2320 2195 c0 -78 2 -85 19 -85 17 0 20 8 23 48 l3 47 25 -47 c15
-31 31 -48 42 -48 16 0 18 10 18 85 0 68 -3 85 -14 85 -11 0 -16 -15 -18 -52
l-3 -52 -28 52 c-19 35 -35 52 -48 52 -17 0 -19 -8 -19 -85z"/>
<path d="M2540 2260 c0 -15 7 -20 25 -20 24 0 25 -2 25 -65 0 -51 3 -65 15
-65 12 0 15 14 15 65 0 63 1 65 25 65 18 0 25 5 25 20 0 18 -7 20 -65 20 -58
0 -65 -2 -65 -20z"/>
<path d="M2781 2254 c-61 -51 -26 -144 54 -144 80 0 115 93 54 144 -17 14 -41
26 -54 26 -13 0 -37 -12 -54 -26z m87 -26 c28 -28 7 -78 -33 -78 -27 0 -45 18
-45 45 0 27 18 45 45 45 12 0 26 -5 33 -12z"/>
<path d="M3032 2264 c-36 -25 -25 -55 31 -82 26 -12 45 -27 42 -32 -10 -16
-52 -12 -59 5 -8 22 -36 18 -36 -5 0 -42 97 -57 124 -19 22 32 6 62 -42 77
-23 8 -42 18 -42 23 0 15 30 23 43 10 13 -13 47 -15 47 -2 0 15 -42 41 -65 41
-11 0 -31 -7 -43 -16z"/>
<path d="M2012 1959 c-18 -28 -72 -49 -127 -49 -38 0 -45 -3 -45 -20 0 -20 7
-20 370 -20 363 0 370 0 370 20 0 17 -7 20 -45 20 -53 0 -102 18 -129 49 -18
20 -28 21 -200 21 -173 0 -182 -1 -194 -21z"/>
</g>
</svg>
