<?xml version="1.0" standalone="no"?>
<!DOCTYPE svg PUBLIC "-//W3C//DTD SVG 20010904//EN"
 "http://www.w3.org/TR/2001/REC-SVG-20010904/DTD/svg10.dtd">
<svg version="1.0" xmlns="http://www.w3.org/2000/svg"
 width="1080.000000pt" height="1920.000000pt" viewBox="0 0 1080.000000 1920.000000"
 preserveAspectRatio="xMidYMid meet">

<g transform="translate(0.000000,1920.000000) scale(0.100000,-0.100000)"
fill="#000000" stroke="none">
<path d="M835 17873 c-45 -23 -76 -54 -91 -90 -12 -27 -14 -257 -14 -1356 l0
-1324 23 -43 c16 -30 37 -51 67 -67 l43 -23 1324 0 c1102 0 1329 2 1356 14 39
16 82 61 96 99 8 20 11 439 11 1345 0 1257 -1 1319 -19 1357 -22 48 -44 69
-94 90 -32 13 -190 15 -1354 15 -1182 -1 -1321 -2 -1348 -17z m2295 -1342 c29
-11 70 -32 91 -47 38 -26 119 -122 119 -141 0 -5 -46 -40 -102 -77 l-103 -67
-33 41 c-45 54 -79 70 -148 70 -50 0 -59 -3 -90 -34 -26 -26 -34 -42 -34 -70
0 -77 39 -111 210 -186 258 -113 343 -192 376 -351 47 -225 -80 -411 -315
-460 -75 -15 -272 -6 -331 16 -122 45 -230 130 -282 222 l-18 31 112 65 112
66 54 -60 c62 -68 91 -85 164 -99 73 -14 149 3 194 42 31 27 34 35 34 85 0 50
-3 59 -33 87 -19 17 -92 58 -163 91 -176 81 -232 115 -286 173 -82 87 -93 119
-93 257 0 106 3 125 24 168 47 95 152 173 264 197 66 14 217 4 277 -19z m-726
-68 c3 -42 6 -95 6 -119 l0 -44 -190 -2 -191 -3 -2 -540 -2 -540 -137 -3 -138
-3 0 546 0 545 -190 0 -190 0 0 120 0 120 514 0 513 0 7 -77z"/>
<path d="M8606 17881 c-3 -5 -14 -7 -24 -4 -15 4 -90 -6 -160 -21 -14 -3 -20
-1 -16 5 4 7 -1 9 -12 7 -11 -2 -18 -10 -16 -17 2 -9 -3 -9 -17 -1 -27 14 -51
13 -31 -1 12 -8 9 -9 -12 -5 -30 7 -61 -2 -52 -15 3 -5 -2 -6 -10 -3 -9 3 -16
1 -16 -6 0 -7 -8 -9 -21 -5 -16 6 -20 4 -13 -6 7 -12 5 -12 -9 -1 -19 16 -49
9 -69 -16 -12 -16 -11 -16 7 -2 16 11 17 11 8 0 -16 -17 -43 -22 -43 -8 0 6
-6 6 -15 -2 -8 -7 -12 -16 -9 -21 3 -5 -2 -6 -11 -2 -13 5 -14 7 -3 14 10 7
10 9 1 9 -7 0 -22 -9 -33 -20 -11 -11 -20 -17 -20 -14 0 4 -6 1 -13 -5 -8 -6
-18 -7 -22 -3 -5 4 -5 -2 -1 -13 6 -16 5 -17 -5 -8 -10 10 -18 9 -41 -5 -15
-9 -28 -20 -28 -25 0 -4 -8 -7 -17 -5 -10 2 -17 -2 -16 -9 2 -7 -4 -10 -12 -7
-18 7 -20 -12 -2 -20 8 -4 7 -5 -3 -5 -32 2 -53 -1 -47 -8 7 -7 -20 -25 -65
-44 -16 -6 -28 -18 -28 -26 0 -8 5 -11 10 -8 16 10 11 -1 -7 -16 -11 -10 -14
-10 -9 -1 17 29 -32 4 -77 -40 -43 -41 -53 -57 -56 -93 -1 -5 -5 -4 -10 4 -7
12 -15 8 -40 -17 -18 -17 -27 -33 -21 -37 13 -8 13 -25 -1 -25 -5 0 -7 5 -4
11 4 6 -3 5 -14 -3 -14 -8 -20 -20 -17 -31 3 -11 2 -17 -1 -14 -6 7 -43 -30
-43 -43 0 -5 -5 -10 -11 -10 -6 0 -9 -9 -6 -20 3 -13 1 -18 -6 -13 -7 4 -8 0
-3 -12 5 -14 4 -15 -7 -7 -10 8 -16 6 -25 -8 -9 -14 -9 -21 0 -26 7 -5 8 -3 3
6 -5 9 -4 11 4 6 6 -4 9 -12 5 -17 -3 -5 -9 -7 -14 -4 -9 6 -22 -23 -15 -35 3
-4 -3 -7 -12 -6 -9 0 -18 -5 -21 -13 -2 -8 0 -11 5 -8 5 3 9 -4 10 -16 0 -12
-1 -16 -4 -9 -3 6 -10 12 -15 12 -6 0 -8 -3 -5 -7 4 -3 2 -12 -4 -20 -6 -7 -9
-13 -5 -13 3 0 -3 -9 -15 -21 -12 -12 -18 -27 -14 -39 3 -10 1 -21 -5 -25 -10
-6 -40 -70 -40 -84 0 -3 5 1 11 9 8 11 9 9 3 -10 -4 -14 -11 -28 -16 -31 -6
-4 -6 -9 1 -13 7 -5 4 -14 -10 -29 -16 -17 -19 -30 -14 -57 4 -27 3 -32 -5
-20 -12 15 -12 13 1 -40 2 -8 -1 -14 -7 -13 -7 1 -10 -20 -9 -63 2 -35 -1 -66
-5 -69 -10 -6 -11 -176 -1 -189 4 -6 8 -20 8 -31 1 -11 2 -25 4 -30 1 -6 -1
-23 -6 -39 -6 -22 -4 -31 9 -38 13 -7 15 -13 6 -23 -18 -21 15 -136 33 -118 4
3 7 1 7 -5 0 -6 -5 -14 -11 -18 -8 -5 -6 -10 5 -16 9 -5 16 -17 16 -26 0 -15
-2 -15 -10 -2 -15 24 -12 4 7 -34 9 -19 20 -33 24 -31 3 3 6 -3 5 -13 0 -9 4
-16 11 -15 7 2 10 -4 6 -13 -5 -13 -7 -13 -14 -2 -7 10 -9 10 -9 1 0 -7 9 -22
20 -33 11 -11 20 -23 20 -27 0 -5 4 -8 9 -8 18 0 23 -13 12 -33 -8 -15 -5 -24
14 -42 14 -13 24 -31 23 -39 -2 -9 2 -15 9 -14 8 2 10 -4 6 -14 -5 -13 -2 -15
11 -10 9 4 15 3 11 -2 -9 -16 13 -59 37 -71 l23 -11 -24 20 c-13 12 -18 21
-11 21 21 0 40 -33 28 -48 -8 -9 -7 -11 5 -6 11 4 15 0 13 -13 -5 -26 4 -36
19 -23 11 9 12 7 8 -8 -3 -14 11 -35 51 -75 31 -32 57 -51 59 -44 3 8 10 7 23
-5 11 -11 13 -18 6 -18 -7 0 -12 5 -12 12 0 6 -3 9 -6 6 -12 -13 27 -57 48
-53 16 3 18 1 8 -10 -9 -11 -7 -16 7 -23 10 -5 26 -8 36 -7 14 3 16 1 7 -10
-9 -11 -7 -15 14 -21 14 -3 24 -10 21 -14 -3 -5 6 -7 19 -4 14 2 27 0 31 -6 4
-6 -1 -7 -12 -3 -16 6 -17 5 -3 -13 23 -29 33 -34 47 -22 10 8 13 7 13 -5 0
-24 24 -39 40 -24 10 10 12 8 6 -7 -5 -15 -2 -18 19 -14 17 4 25 1 25 -8 0
-20 42 -43 72 -39 16 2 31 -2 35 -7 3 -7 1 -8 -5 -4 -7 4 -12 3 -12 -2 0 -13
29 -24 42 -15 7 3 8 1 4 -5 -4 -7 -1 -12 8 -12 8 0 17 4 21 9 3 5 17 -2 31
-16 16 -16 32 -23 45 -20 10 3 17 1 13 -4 -3 -5 2 -9 10 -9 8 0 18 5 21 10 3
6 11 10 17 10 6 0 5 -7 -3 -17 -13 -15 -12 -15 9 -4 18 10 22 9 22 -4 0 -8 5
-15 11 -15 5 0 7 5 3 11 -4 8 -1 8 12 1 11 -5 25 -7 33 -4 8 3 11 0 7 -6 -12
-20 44 -27 164 -23 68 3 112 -2 99 -10 -10 -6 -8 -9 9 -9 13 0 21 4 18 9 -5 8
66 15 104 11 81 -9 165 3 153 23 -5 8 -2 8 9 -1 13 -10 18 -10 24 -1 5 8 3 10
-7 4 -8 -5 -10 -4 -6 0 10 12 38 15 31 4 -3 -5 0 -9 5 -9 6 0 11 6 11 14 0 9
7 12 20 9 11 -3 20 0 20 6 0 8 5 8 18 0 14 -9 27 -7 60 10 23 12 42 24 42 27
0 3 -6 2 -12 -2 -10 -5 -10 -4 0 7 9 10 17 11 30 2 14 -8 24 -7 43 4 13 8 16
12 6 9 -11 -3 -15 -2 -12 4 3 6 13 10 22 10 9 0 22 8 29 18 11 14 15 14 23 3
10 -15 39 -3 61 26 12 15 12 16 0 6 -8 -7 -18 -13 -24 -13 -5 0 -1 6 10 14 14
11 22 11 32 3 10 -8 18 -5 34 11 l21 21 -24 -5 c-21 -4 -21 -3 -4 5 11 4 28 7
38 5 9 -1 17 2 17 7 0 6 4 8 8 5 5 -3 16 4 25 15 9 10 24 19 32 19 9 0 14 4
10 9 -3 5 4 12 15 16 11 3 21 11 21 16 1 5 2 13 3 18 0 5 4 13 8 17 4 3 5 -4
3 -17 -4 -21 1 -18 30 16 18 21 32 42 29 46 -5 8 14 22 34 25 6 1 10 -2 6 -7
-3 -5 -10 -6 -16 -3 -7 5 -8 2 -3 -5 5 -9 13 -7 31 10 23 22 24 46 1 33 -7 -4
-8 -3 -4 2 5 5 14 9 20 9 7 1 11 6 9 13 -1 7 1 11 5 10 16 -5 63 35 63 53 0
11 5 19 10 19 12 0 50 37 49 48 0 4 10 17 21 30 12 12 24 38 26 58 2 20 6 39
10 43 4 3 4 -5 1 -17 -5 -23 -5 -23 14 -6 19 17 27 40 11 30 -5 -3 -9 1 -9 9
0 8 4 12 9 9 4 -3 8 5 9 18 0 21 1 21 8 4 6 -16 8 -17 13 -4 4 9 1 21 -5 27
-9 9 -8 11 6 6 10 -4 17 -2 17 4 0 6 -4 11 -10 11 -5 0 -10 5 -10 11 0 5 5 7
10 4 6 -3 10 1 10 10 0 8 6 18 14 21 8 3 17 13 20 21 6 14 4 14 -10 2 -16 -13
-16 -12 -4 8 8 12 19 19 25 15 7 -4 7 -1 -1 9 -5 8 -9 20 -8 27 1 6 2 18 3 25
1 9 3 9 9 -1 6 -9 13 -1 25 25 23 56 25 66 16 91 -6 16 -5 22 6 22 8 0 15 5
15 11 0 5 -4 8 -8 5 -5 -3 -9 1 -9 9 0 8 5 11 10 8 6 -4 8 0 4 10 -3 9 -1 17
5 19 11 4 28 78 26 118 0 23 -1 23 -9 -5 -6 -23 -7 -18 -3 20 3 28 5 59 5 70
0 10 4 25 10 31 6 7 6 15 1 18 -8 5 -16 91 -12 141 7 93 -3 171 -19 160 -5 -3
-8 3 -6 12 1 10 -3 24 -9 32 -8 11 -8 13 2 7 6 -4 12 -2 12 3 0 6 -5 11 -10
11 -6 0 -10 10 -9 23 3 38 -1 58 -10 52 -5 -3 -12 -1 -15 4 -4 5 -2 12 4 16 6
4 5 13 -2 25 -7 10 -16 16 -22 13 -5 -3 -6 -1 -2 5 3 6 2 14 -4 17 -8 5 -8 11
0 20 12 14 3 48 -11 39 -5 -3 -6 2 -3 10 4 9 -1 18 -10 22 -9 3 -13 10 -10 16
10 16 -17 68 -36 68 -13 0 -16 6 -12 26 5 28 -33 78 -52 67 -6 -4 -4 2 4 12
12 15 12 17 1 10 -11 -6 -13 -4 -8 7 4 11 -4 21 -25 31 -18 9 -26 17 -19 21 8
5 6 15 -6 31 -12 16 -22 20 -30 13 -8 -6 -11 -4 -8 9 1 10 -2 26 -7 36 -7 14
-13 16 -23 7 -11 -9 -12 -7 -8 11 5 17 3 21 -9 16 -9 -3 -24 1 -35 8 -10 8
-13 15 -8 15 6 0 17 -6 25 -12 12 -11 12 -10 1 5 -7 9 -21 17 -30 17 -13 0
-13 2 -2 9 8 5 10 14 6 21 -6 10 -11 9 -20 -4 -11 -14 -14 -15 -25 -1 -11 13
-10 14 4 9 9 -3 16 -3 16 0 0 10 -73 81 -83 81 -5 0 -15 8 -22 19 -9 11 -20
16 -30 12 -10 -3 -14 -2 -10 5 4 6 0 9 -10 7 -10 -2 -20 4 -22 12 -4 13 -3 13
6 0 6 -8 11 -10 11 -4 0 13 -30 42 -45 44 -5 0 -23 10 -38 22 -15 12 -41 22
-57 23 -17 1 -33 5 -37 10 -5 4 1 5 11 1 19 -7 20 -6 1 14 -10 11 -25 18 -32
16 -7 -3 -13 -1 -13 4 0 5 -9 7 -20 5 -11 -2 -23 1 -26 7 -4 7 -2 8 4 4 7 -4
12 -5 12 -2 0 3 -14 13 -31 21 -23 12 -34 13 -44 5 -10 -8 -15 -7 -22 4 -4 8
-22 22 -38 30 -33 17 -59 22 -35 6 13 -8 13 -10 -2 -10 -9 0 -20 5 -23 11 -4
6 -13 8 -21 5 -8 -3 -14 -2 -14 2 0 13 -64 36 -102 36 -20 0 -34 4 -32 8 3 5
-7 8 -21 8 -14 0 -24 -4 -20 -9 3 -6 -7 -8 -22 -7 -16 2 -28 5 -28 6 0 5 -63
12 -107 13 -26 0 -45 4 -42 9 3 4 3 8 0 8 -3 0 -7 -4 -10 -9z m301 -37 c-3 -3
-12 -4 -19 -1 -8 3 -5 6 6 6 11 1 17 -2 13 -5z m528 -223 c3 -5 2 -12 -3 -15
-5 -3 -9 1 -9 9 0 17 3 19 12 6z m-340 -71 c3 -5 21 -10 38 -10 18 0 54 -7 82
-15 27 -9 55 -13 63 -10 7 2 10 0 7 -5 -3 -6 1 -10 11 -10 9 0 32 -10 51 -21
19 -12 36 -19 39 -16 3 2 19 -10 37 -27 18 -17 43 -39 57 -49 14 -10 19 -15
11 -11 -9 5 -8 -2 5 -19 10 -15 23 -27 27 -27 5 0 6 -4 3 -9 -3 -5 1 -28 9
-51 19 -54 19 -141 0 -204 -8 -27 -13 -52 -10 -54 3 -3 5 1 5 8 0 7 2 11 5 8
3 -3 -8 -27 -26 -52 -17 -26 -29 -49 -26 -52 3 -3 -8 -19 -24 -37 -16 -17 -27
-33 -24 -35 2 -2 -8 -15 -23 -29 -15 -13 -20 -22 -12 -18 8 4 1 -5 -17 -19
-18 -15 -44 -41 -59 -59 -14 -18 -23 -26 -19 -19 4 7 -20 -7 -53 -32 -33 -25
-65 -46 -72 -46 -6 0 -8 -5 -4 -12 4 -7 3 -8 -4 -4 -12 7 -74 -21 -80 -37 -2
-4 -8 -5 -13 -1 -9 5 -94 -22 -115 -37 -5 -5 -21 -6 -35 -3 -15 4 -20 3 -12
-3 8 -6 0 -9 -25 -10 -20 0 -83 -4 -139 -8 -148 -11 -262 19 -341 89 -24 21
-62 86 -62 106 0 25 32 20 66 -9 19 -17 40 -28 46 -25 6 4 8 3 5 -3 -9 -15
101 -46 168 -46 67 0 192 21 200 34 3 4 12 6 19 3 13 -5 114 32 126 45 3 4 10
6 15 6 18 1 65 28 65 37 0 5 4 7 9 4 19 -12 179 124 230 197 13 18 13 19 0 13
-9 -5 -8 -3 2 6 25 21 51 66 45 77 -3 5 0 11 6 13 20 7 18 166 -2 178 -8 5
-11 10 -6 10 5 0 1 9 -8 19 -10 11 -25 17 -34 14 -9 -4 -13 -2 -9 4 10 15 -66
46 -94 38 -19 -5 -21 -4 -9 5 12 9 8 10 -17 5 -18 -4 -34 -2 -38 4 -8 14 -162
14 -170 0 -4 -6 -24 -8 -49 -5 -30 4 -36 3 -21 -4 14 -6 8 -7 -24 -3 -35 5
-42 3 -36 -7 5 -9 4 -11 -4 -6 -16 10 -112 -15 -104 -27 3 -5 -3 -6 -15 -3
-13 5 -37 -1 -64 -16 -24 -12 -49 -21 -57 -19 -8 1 -10 -2 -5 -10 4 -7 3 -10
-4 -5 -12 7 -82 -23 -82 -36 0 -5 -4 -7 -9 -3 -13 8 -73 -30 -63 -40 4 -4 0
-6 -9 -3 -18 7 -92 -35 -82 -46 4 -4 0 -4 -8 -1 -9 3 -26 -5 -42 -19 -14 -13
-28 -22 -30 -20 -3 3 -19 -10 -38 -28 -18 -18 -29 -26 -24 -18 10 17 -94 -68
-140 -115 -42 -42 -89 -105 -79 -105 5 0 4 -4 -1 -8 -25 -17 -47 -69 -55 -125
-10 -66 -3 -150 11 -141 5 3 6 -3 2 -12 -4 -12 -3 -15 5 -10 7 4 10 2 7 -6 -3
-8 4 -24 15 -36 11 -12 17 -22 13 -22 -4 0 21 -29 57 -65 35 -35 66 -62 68
-60 3 2 13 -7 24 -20 11 -14 23 -23 28 -20 5 3 10 2 12 -2 1 -5 39 -38 83 -74
44 -37 91 -79 104 -93 13 -14 29 -22 34 -19 17 11 52 13 221 17 104 2 154 0
145 -6 -10 -7 -8 -8 8 -5 12 3 23 2 25 -2 2 -3 21 -15 43 -26 21 -11 53 -31
69 -45 17 -14 27 -18 22 -10 -4 8 0 6 8 -4 9 -11 16 -24 16 -29 0 -4 5 -5 12
-1 6 4 8 3 5 -3 -3 -5 4 -20 16 -34 12 -13 22 -30 23 -36 2 -29 4 -34 12 -29
5 3 7 -30 6 -72 -3 -97 -6 -122 -16 -116 -4 3 -8 1 -8 -5 0 -13 -36 -48 -75
-72 -34 -22 -75 -25 -75 -6 1 13 30 56 30 42 0 -14 41 28 56 57 24 46 11 148
-18 148 -5 0 -7 4 -4 8 3 5 -8 22 -24 37 -17 16 -30 26 -30 22 0 -3 -11 5 -25
19 -15 14 -32 23 -40 20 -8 -3 -15 -2 -15 2 0 24 -204 49 -280 35 -37 -7 -44
-12 -42 -28 2 -11 7 -21 11 -23 3 -1 5 -21 4 -45 -2 -35 -1 -38 7 -17 5 16 6
4 2 -35 -4 -33 -7 -81 -7 -107 0 -25 -2 -44 -4 -42 -8 8 -31 -79 -24 -89 4 -6
1 -7 -7 -2 -10 6 -12 4 -6 -11 4 -10 4 -15 0 -11 -7 7 -34 -36 -38 -60 -1 -7
-6 -16 -11 -20 -4 -4 -5 -1 -1 7 6 12 5 12 -6 -1 -48 -56 -90 -102 -83 -89 5
8 -3 5 -16 -6 -13 -12 -45 -33 -71 -46 -26 -14 -44 -28 -40 -32 4 -4 -6 -4
-22 0 -17 4 -27 3 -23 -2 6 -10 -1 -11 -130 -16 -53 -2 -89 1 -85 6 3 5 -5 7
-17 3 -13 -3 -21 -3 -18 0 3 3 -7 16 -23 30 -17 13 -39 46 -51 71 -17 39 -20
59 -15 122 8 104 9 109 19 103 5 -3 8 0 5 8 -2 7 7 26 21 42 14 16 26 32 26
36 0 3 22 28 49 56 28 27 46 43 42 35 -4 -8 7 1 25 20 17 19 28 29 24 22 -4
-7 11 -1 33 15 22 15 38 31 36 34 -2 3 2 6 9 6 17 0 118 62 135 81 7 10 10 11
7 4 -6 -11 -3 -12 14 -2 18 9 20 14 10 26 -6 8 -14 13 -16 10 -2 -2 -16 7 -30
20 -14 13 -31 21 -37 17 -6 -3 -8 -3 -4 2 9 10 -39 48 -51 40 -6 -3 -15 3 -20
13 -6 11 -22 27 -37 37 -18 11 -24 13 -19 4 3 -8 -1 -5 -10 6 -9 11 -21 19
-26 17 -6 -1 -8 2 -5 7 3 5 -6 16 -20 26 -14 9 -43 32 -65 52 -21 19 -39 33
-39 30 0 -8 -50 42 -50 51 -1 4 -15 23 -32 42 -17 19 -27 28 -23 20 5 -9 4
-12 -1 -7 -5 5 -9 12 -9 15 -2 24 -18 51 -27 46 -6 -4 -8 -2 -4 4 6 9 -9 52
-35 104 -10 21 -12 72 -3 81 12 11 43 111 38 119 -3 5 -1 8 4 8 9 0 36 47 37
65 0 6 12 24 27 40 15 16 24 33 21 38 -3 6 -1 7 4 4 9 -6 24 14 27 35 1 3 5
10 10 15 6 5 6 2 0 -7 -4 -8 33 26 84 76 51 50 92 90 92 88 0 -2 28 16 62 41
34 25 66 45 71 45 4 0 6 4 3 8 -3 5 0 9 7 9 16 0 120 62 129 77 4 6 8 7 8 3 0
-5 17 0 38 11 20 11 60 31 89 44 29 14 50 28 47 31 -3 3 4 3 17 0 17 -5 20 -3
14 7 -5 8 -4 11 3 6 12 -7 62 13 62 26 0 5 5 6 10 3 15 -9 51 5 44 17 -4 6 -2
8 3 5 6 -4 65 7 132 23 66 17 136 30 156 30 19 0 35 5 35 10 0 6 31 10 74 10
41 0 78 -4 81 -10z m775 -406 c0 -8 -5 -12 -10 -9 -6 4 -8 11 -5 16 9 14 15
11 15 -7z m43 -79 c4 -8 3 -16 -1 -19 -4 -3 -9 4 -9 15 -2 23 3 25 10 4z
m-2651 -157 c-7 -7 -10 -5 -7 8 5 29 6 30 12 16 3 -8 1 -18 -5 -24z m2748 -98
c0 -5 -5 -10 -11 -10 -5 0 -7 5 -4 10 3 6 8 10 11 10 2 0 4 -4 4 -10z m27
-142 c-3 -8 -6 -5 -6 6 -1 11 2 17 5 13 3 -3 4 -12 1 -19z m-1440 -24 c-3 -3
-12 -4 -19 -1 -8 3 -5 6 6 6 11 1 17 -2 13 -5z m116 -1 c-7 -2 -19 -2 -25 0
-7 3 -2 5 12 5 14 0 19 -2 13 -5z m1334 -50 c-3 -10 -5 -4 -5 12 0 17 2 24 5
18 2 -7 2 -21 0 -30z m-2860 -375 c-3 -8 -6 -5 -6 6 -1 11 2 17 5 13 3 -3 4
-12 1 -19z m10 -80 c-3 -8 -6 -5 -6 6 -1 11 2 17 5 13 3 -3 4 -12 1 -19z
m2808 -87 c3 -5 1 -12 -5 -16 -5 -3 -10 1 -10 9 0 18 6 21 15 7z m-1412 -68
c-13 -2 -33 -2 -45 0 -13 2 -3 4 22 4 25 0 35 -2 23 -4z m-1239 -239 c7 -19 2
-18 -19 6 -16 17 -16 20 -3 15 9 -4 19 -13 22 -21z m1123 -6 c-3 -7 -5 -2 -5
12 0 14 2 19 5 13 2 -7 2 -19 0 -25z m1321 -128 c-14 -22 -24 -19 -15 5 4 8
11 15 17 15 6 0 6 -7 -2 -20z m-2208 -175 c7 -8 8 -15 2 -15 -5 0 -15 7 -22
15 -7 8 -8 15 -2 15 5 0 15 -7 22 -15z m1855 -175 c-3 -5 -12 -10 -18 -10 -7
0 -6 4 3 10 19 12 23 12 15 0z m-1450 -131 c-7 -10 -35 -1 -35 11 0 5 9 6 20
3 11 -3 17 -9 15 -14z m160 -67 c-3 -3 -11 0 -18 7 -9 10 -8 11 6 5 10 -3 15
-9 12 -12z m885 -12 c0 -5 -5 -10 -11 -10 -5 0 -7 5 -4 10 3 6 8 10 11 10 2 0
4 -4 4 -10z m-587 -57 c-7 -2 -21 -2 -30 0 -10 3 -4 5 12 5 17 0 24 -2 18 -5z
m350 0 c-7 -2 -21 -2 -30 0 -10 3 -4 5 12 5 17 0 24 -2 18 -5z"/>
<path d="M8307 15918 c-3 -10 -12 -18 -19 -18 -9 0 -8 3 2 10 8 5 12 10 7 10
-24 0 -237 -157 -237 -175 0 -3 -12 -17 -27 -31 -16 -14 -21 -22 -13 -18 8 4
5 -3 -8 -15 -12 -12 -19 -27 -16 -33 4 -6 3 -8 -3 -5 -6 4 -14 0 -17 -9 -9
-23 -8 -26 7 -17 6 4 4 -5 -5 -20 -20 -29 -24 -87 -7 -87 5 0 8 -4 5 -9 -7
-11 18 -21 52 -20 37 0 115 33 105 44 -5 4 -2 5 6 0 10 -6 22 1 39 21 13 16
21 22 16 14 -4 -8 9 2 29 23 34 35 41 49 38 70 0 4 5 6 12 5 6 -2 12 4 12 12
0 8 3 17 6 20 4 3 14 27 23 53 16 49 20 122 7 167 -6 21 -8 22 -14 8z m10
-115 c-2 -16 -4 -3 -4 27 0 30 2 43 4 28 2 -16 2 -40 0 -55z m-274 -310 c-7
-2 -21 -2 -30 0 -10 3 -4 5 12 5 17 0 24 -2 18 -5z"/>
<path d="M7305 15800 c-3 -5 -1 -10 4 -10 6 0 11 5 11 10 0 6 -2 10 -4 10 -3
0 -8 -4 -11 -10z"/>
<path d="M2040 14454 c-47 -9 -155 -47 -205 -72 -153 -75 -301 -224 -380 -382
-153 -304 -183 -685 -81 -1035 30 -101 74 -212 127 -316 36 -72 39 -85 30
-112 -50 -141 77 -296 222 -273 135 22 214 159 162 284 -31 74 -86 111 -175
121 l-55 6 -56 112 c-117 233 -160 497 -129 778 24 208 126 430 257 557 97 94
285 168 428 168 68 0 167 -27 222 -61 99 -61 197 -179 259 -315 31 -66 78
-222 86 -283 3 -20 13 -27 68 -43 124 -37 114 -39 106 28 -39 334 -214 633
-440 756 -115 62 -180 80 -306 83 -63 2 -126 1 -140 -1z"/>
<path d="M8522 14435 c-84 -20 -142 -54 -212 -125 -85 -87 -130 -175 -156
-305 -28 -139 -12 -270 47 -403 17 -38 18 -50 9 -104 -18 -97 2 -173 57 -223
18 -17 33 -38 33 -47 0 -19 -115 -128 -155 -147 -17 -7 -38 -17 -47 -22 -10
-5 -40 -9 -68 -9 -101 0 -193 81 -234 208 -13 39 -17 76 -14 145 4 115 27 163
146 303 93 111 152 219 152 280 0 105 -119 168 -219 116 -54 -27 -52 -43 4
-36 49 7 115 -18 115 -43 0 -7 6 -23 13 -34 10 -17 10 -23 0 -26 -16 -6 -17
-60 -2 -65 21 -7 -24 -74 -112 -166 -135 -141 -184 -255 -183 -422 1 -97 23
-180 64 -240 9 -14 20 -33 24 -44 5 -16 2 -18 -24 -14 -16 3 -30 1 -30 -4 0
-11 100 -108 112 -108 5 0 19 -9 31 -20 18 -18 20 -22 7 -30 -66 -43 -205 -31
-329 27 -120 57 -224 175 -251 288 -7 28 -8 27 -9 -13 -1 -50 31 -151 62 -197
85 -124 196 -198 346 -230 112 -23 168 -18 289 28 44 16 156 85 172 106 18 23
73 60 82 55 12 -8 2 -68 -19 -107 -42 -82 -149 -133 -333 -157 -172 -23 -245
-50 -336 -121 -175 -139 -176 -443 -2 -570 41 -29 78 -38 78 -19 0 6 -6 10
-13 10 -25 0 -98 72 -124 124 -23 43 -27 64 -27 136 0 73 4 93 28 142 66 132
167 186 386 207 146 14 192 19 258 29 l52 8 0 -48 c0 -35 6 -54 20 -68 14 -14
20 -33 20 -65 0 -52 4 -62 83 -225 90 -184 89 -252 -6 -324 -49 -38 -120 -45
-179 -18 -54 24 -118 108 -118 157 l-1 30 -14 -25 c-18 -31 -19 -93 -2 -139
22 -63 118 -141 174 -141 10 0 24 -5 30 -11 12 -12 88 9 91 26 2 6 22 30 47
55 51 53 85 114 92 167 4 33 -9 96 -47 228 -43 148 -55 243 -41 318 28 153
107 226 255 235 185 12 297 -105 296 -307 -1 -57 -18 -146 -50 -256 -50 -174
-53 -218 -21 -290 12 -27 43 -72 69 -98 26 -26 47 -51 46 -55 -1 -14 78 -34
89 -23 6 6 20 11 30 11 24 0 86 29 111 52 11 10 23 18 28 18 4 0 8 7 8 15 0 8
5 15 10 15 6 0 10 9 10 19 0 11 5 23 10 26 11 7 14 103 4 129 -9 25 -24 19
-24 -9 0 -14 -11 -43 -25 -64 -84 -134 -244 -134 -324 -1 -35 59 -28 99 43
244 68 138 96 218 96 274 0 24 5 35 18 38 14 4 16 14 14 58 l-4 53 54 -9 c29
-5 98 -13 153 -18 138 -12 244 -27 283 -39 99 -30 198 -124 227 -216 44 -141
-17 -311 -130 -360 -25 -11 -27 -15 -13 -20 19 -8 75 23 115 63 95 95 111 306
34 438 -29 50 -62 83 -116 118 -85 55 -154 77 -295 96 -90 12 -199 38 -215 52
-5 4 -16 8 -25 8 -17 0 -73 50 -97 87 -19 28 -33 91 -26 110 5 11 10 11 32 -3
14 -10 37 -28 51 -41 69 -66 163 -114 272 -139 62 -15 85 -15 155 -5 157 22
266 85 356 203 63 84 108 211 88 246 -9 14 -10 12 -11 -11 0 -38 -69 -144
-130 -201 -60 -56 -154 -102 -247 -122 -81 -17 -116 -17 -163 0 -44 16 -49 38
-13 57 25 12 133 114 133 124 0 3 -13 2 -30 -1 -25 -6 -30 -3 -30 14 0 11 4
22 8 24 12 4 57 105 72 161 8 30 11 79 7 135 -9 149 -63 259 -199 400 -80 84
-120 143 -99 150 14 5 14 47 -1 71 -9 15 -7 24 11 50 12 17 29 31 37 31 8 0
14 5 14 11 0 8 19 10 63 6 l62 -7 -28 25 c-35 31 -90 41 -145 26 -47 -12 -57
-20 -85 -63 -29 -45 -19 -108 31 -191 12 -21 22 -40 22 -43 0 -7 77 -104 128
-159 25 -27 58 -78 74 -112 25 -55 28 -74 28 -163 0 -90 -3 -107 -29 -163 -80
-173 -223 -216 -372 -110 -50 35 -119 107 -119 123 0 5 14 22 31 37 47 42 69
97 69 169 0 35 -5 75 -12 88 -9 22 -8 33 9 68 25 52 48 132 63 214 13 75 -6
217 -41 309 -61 163 -184 280 -334 320 -70 18 -111 18 -183 0z m-178 -947 c12
-20 -8 -49 -29 -42 -20 8 -27 34 -14 51 14 16 29 13 43 -9z m520 7 c8 -23 -4
-45 -25 -45 -13 0 -19 7 -19 23 0 37 32 53 44 22z"/>
<path d="M1903 13585 c-74 -34 -113 -96 -113 -177 0 -90 39 -152 119 -193 79
-40 206 1 253 81 l21 36 111 -7 c280 -17 519 -95 743 -240 170 -111 320 -286
391 -457 44 -106 55 -165 50 -279 -3 -92 -6 -103 -48 -185 -74 -146 -191 -244
-345 -290 -119 -36 -329 -19 -482 38 l-52 19 -73 -61 c-40 -34 -74 -65 -76
-69 -4 -11 151 -65 248 -88 55 -13 115 -18 225 -18 132 1 160 4 235 27 384
116 579 395 531 760 -29 215 -142 421 -328 598 -275 262 -594 393 -1016 415
-127 7 -127 7 -149 37 -25 36 -110 78 -158 78 -19 0 -59 -11 -87 -25z"/>
<path d="M1066 13094 c-214 -183 -336 -430 -336 -683 0 -363 202 -610 562
-687 281 -60 681 36 970 232 194 133 317 270 469 527 22 36 34 46 64 51 58 11
120 80 134 147 27 136 -62 249 -197 249 -28 0 -63 -5 -79 -11 -38 -14 -92 -67
-109 -106 -27 -63 -15 -156 28 -215 14 -20 8 -34 -71 -153 -57 -87 -213 -246
-305 -310 -183 -129 -374 -217 -536 -246 -84 -15 -257 -15 -340 1 -189 35
-333 158 -407 348 -23 58 -27 82 -27 177 0 94 4 121 27 184 39 108 110 214
204 308 l83 82 -22 86 c-13 47 -26 85 -29 85 -3 0 -41 -30 -83 -66z"/>
<path d="M7940 10979 c-154 -14 -255 -56 -344 -145 -68 -67 -111 -142 -137
-240 -18 -73 -20 -114 -23 -519 -1 -242 0 -573 4 -735 8 -315 11 -334 69 -448
34 -68 137 -164 212 -199 124 -58 119 -58 899 -58 652 0 721 2 779 18 186 51
312 174 370 362 23 75 29 1419 7 1537 -41 216 -183 367 -391 414 -60 14 -165
16 -720 18 -357 1 -684 -1 -725 -5z m753 -365 c40 -21 67 -71 67 -124 l0 -45
97 -55 c52 -30 121 -70 152 -88 80 -47 77 -46 114 -23 60 37 133 24 186 -33
18 -19 25 -40 28 -78 5 -67 -18 -115 -69 -141 l-38 -19 0 -188 0 -188 35 -21
c68 -40 96 -132 60 -201 -34 -66 -152 -94 -209 -49 -14 11 -30 19 -34 17 -5
-2 -79 -43 -165 -92 l-157 -90 0 -46 c0 -81 -67 -150 -145 -150 -40 0 -94 28
-119 63 -11 15 -23 50 -26 79 l-5 50 -163 95 -163 94 -26 -21 c-34 -27 -117
-27 -157 -1 -93 62 -87 205 11 251 l33 15 0 192 0 192 -32 16 c-47 22 -78 72
-78 126 0 115 119 185 219 128 l37 -21 60 35 c87 51 142 83 205 119 56 31 57
32 61 83 5 62 29 97 83 125 43 22 86 20 138 -6z"/>
<path d="M8414 10332 c-254 -148 -231 -131 -236 -183 -6 -58 -28 -94 -74 -121
l-34 -20 0 -189 c0 -104 2 -189 4 -189 2 0 15 19 28 43 43 74 370 641 390 675
11 17 16 32 11 31 -4 0 -44 -21 -89 -47z"/>
<path d="M8732 10358 c8 -13 104 -178 213 -368 109 -190 202 -349 206 -354 5
-6 9 74 9 181 l0 191 -34 20 c-46 27 -68 63 -74 122 l-4 49 -158 90 c-87 50
-161 91 -165 91 -4 0 -1 -10 7 -22z"/>
<path d="M8555 10311 c-12 -20 -66 -112 -120 -206 -54 -93 -137 -237 -185
-320 -120 -206 -112 -186 -92 -228 l17 -36 440 -1 440 0 18 38 18 37 -214 370
-213 370 -43 6 c-41 5 -44 4 -66 -30z"/>
<path d="M8186 9441 c5 -5 80 -51 167 -101 152 -88 159 -91 178 -74 36 33 129
29 179 -7 12 -9 49 9 178 81 89 51 162 97 162 101 0 5 -197 9 -437 9 -268 0
-433 -4 -427 -9z"/>
<path d="M4355 10674 c-19 -14 -20 -29 -23 -518 -3 -341 0 -510 7 -524 9 -17
175 -119 224 -138 9 -3 28 1 42 10 l25 16 0 305 c0 292 1 306 20 325 11 11 30
20 42 20 11 0 67 -27 122 -59 56 -32 124 -71 151 -87 28 -15 64 -36 80 -46 17
-10 38 -18 48 -18 11 0 101 47 201 105 101 58 192 105 204 105 11 0 30 -12 41
-26 19 -24 21 -40 21 -184 0 -177 5 -165 -90 -218 -30 -17 -125 -71 -210 -120
l-155 -89 0 -174 0 -174 45 -28 c47 -30 238 -140 424 -245 60 -34 120 -62 133
-62 14 0 102 44 196 98 95 54 253 145 352 202 99 56 188 111 198 122 15 18 17
50 17 340 0 198 -4 327 -10 338 -6 11 -20 24 -31 31 -17 9 -35 2 -112 -42 -51
-29 -104 -61 -119 -71 l-28 -19 0 -194 c0 -169 -2 -195 -17 -213 -26 -30 -420
-252 -447 -252 -13 0 -72 28 -132 63 -104 59 -109 64 -112 98 -2 24 2 40 14
50 9 8 96 59 193 115 l176 100 3 519 c2 472 1 520 -14 537 -10 10 -23 18 -31
18 -8 0 -94 -46 -191 -102 -97 -55 -247 -141 -332 -190 -85 -49 -165 -91 -177
-94 -14 -4 -37 2 -60 16 -203 120 -646 370 -655 370 -7 0 -22 -7 -33 -16z"/>
<path d="M6309 10632 c-141 -84 -129 -64 -129 -218 0 -190 13 -198 163 -109
129 78 127 74 127 217 0 113 -1 120 -25 143 -13 14 -28 25 -32 25 -4 0 -51
-26 -104 -58z"/>
<path d="M2890 9943 c-62 -7 -154 -42 -203 -79 -120 -88 -167 -256 -117 -418
17 -53 33 -79 81 -130 63 -68 129 -108 308 -185 153 -66 201 -117 187 -197
-29 -149 -303 -151 -415 -2 -19 27 -39 48 -44 48 -14 0 -217 -121 -217 -130 0
-19 93 -132 132 -161 111 -80 216 -113 368 -113 165 0 282 44 365 137 63 69
88 141 87 252 -1 199 -87 302 -353 421 -64 29 -135 62 -157 73 -76 39 -107
107 -79 174 19 44 61 67 122 67 62 0 112 -25 144 -71 25 -37 44 -48 55 -31 3
5 44 32 90 61 47 29 88 57 92 62 8 14 -31 72 -82 119 -58 54 -131 87 -219 100
-71 10 -81 10 -145 3z"/>
<path d="M2040 9430 c0 -542 -1 -550 -54 -585 -35 -23 -96 -30 -139 -16 -32
11 -77 53 -117 111 -15 21 -15 21 -114 -39 -55 -33 -104 -65 -110 -71 -31 -31
116 -184 211 -220 81 -30 166 -42 243 -34 168 18 276 94 332 232 23 57 23 61
26 590 l3 532 -141 0 -140 0 0 -500z"/>
<path d="M1640 7805 l0 -195 155 0 155 0 0 70 0 70 -90 0 -90 0 0 65 0 65 90
0 90 0 0 60 0 60 -155 0 -155 0 0 -195z"/>
<path d="M2020 7875 l0 -125 90 0 c53 0 90 -4 90 -10 0 -6 -37 -10 -90 -10
l-90 0 0 -60 0 -60 155 0 155 0 0 130 0 130 -90 0 c-53 0 -90 4 -90 10 0 6 37
10 90 10 l90 0 0 55 0 55 -155 0 -155 0 0 -125z"/>
<path d="M2392 7878 l3 -123 93 -3 c50 -1 92 -7 92 -12 0 -5 -42 -11 -92 -12
l-93 -3 -3 -57 -3 -58 161 0 160 0 0 130 0 130 -90 0 c-116 0 -118 18 -2 22
l87 3 3 53 3 52 -161 0 -161 0 3 -122z"/>
<path d="M5363 7920 c-50 -11 -76 -32 -209 -168 l-124 -127 151 -151 151 -151
67 1 c132 1 214 -82 218 -220 l2 -71 144 -144 144 -143 69 -1 c89 0 150 -33
191 -102 71 -121 15 -278 -116 -322 -148 -49 -293 71 -278 231 l5 58 -131 133
-132 132 -3 -363 -2 -362 34 -31 c49 -42 76 -104 76 -170 0 -74 -46 -153 -110
-189 -100 -56 -229 -21 -287 78 -56 95 -29 230 57 290 l39 27 1 378 c0 224 -4
377 -9 377 -19 0 -72 54 -92 92 -24 47 -34 124 -21 158 9 23 -2 36 -145 178
l-155 153 -31 -28 c-90 -80 -831 -831 -838 -851 -14 -35 -11 -110 5 -140 8
-15 300 -311 648 -659 700 -698 662 -667 765 -642 46 11 81 44 676 638 345
344 634 640 642 658 19 39 19 104 1 146 -8 18 -281 299 -647 664 -473 471
-642 633 -664 638 -16 4 -37 8 -45 10 -8 1 -30 -1 -47 -5z"/>
<path d="M7752 7713 l3 -198 63 -3 62 -3 0 66 0 65 65 0 65 0 0 -65 0 -66 63
3 62 3 3 198 2 197 -65 0 -65 0 0 -70 0 -70 -65 0 -65 0 0 70 0 70 -65 0 -65
0 2 -197z"/>
<path d="M8192 7843 l3 -68 63 -3 62 -3 0 -129 0 -130 65 0 65 0 0 130 0 130
58 0 c32 0 61 2 63 4 2 2 2 34 1 70 l-4 66 -189 0 -190 0 3 -67z"/>
<path d="M8630 7710 l0 -200 65 0 64 0 3 97 3 97 44 -67 c24 -37 45 -67 47
-67 2 0 23 30 46 68 l43 67 3 -97 3 -98 64 0 65 0 0 200 0 200 -65 0 -65 0
-46 -70 c-26 -38 -48 -70 -49 -70 -1 0 -22 31 -46 70 l-44 70 -67 0 -68 0 0
-200z"/>
<path d="M9150 7710 l0 -200 160 0 160 0 0 65 0 65 -95 0 -95 0 0 135 0 135
-65 0 -65 0 0 -200z"/>
<path d="M1157 7398 c2 -18 16 -190 33 -383 17 -192 37 -422 45 -510 21 -231
43 -468 65 -725 33 -375 41 -455 48 -462 4 -3 149 -45 322 -93 173 -48 360
-100 414 -115 l99 -29 421 116 c232 64 424 120 427 125 3 5 11 73 18 151 13
153 42 478 67 752 15 162 28 316 73 830 11 127 23 263 27 303 l7 72 -1035 0
-1034 0 3 -32z m1683 -420 c0 -13 -4 -61 -10 -108 -5 -47 -14 -143 -20 -215
-5 -71 -17 -200 -25 -285 -8 -85 -24 -263 -35 -395 -11 -132 -23 -254 -25
-271 l-5 -30 -203 -57 c-111 -31 -231 -64 -267 -73 l-65 -17 -260 72 c-143 40
-263 76 -267 79 -5 6 -38 340 -38 393 0 19 7 19 128 17 l127 -3 7 -50 c4 -27
11 -74 15 -104 l8 -53 139 -39 139 -38 136 37 c75 19 141 39 147 44 6 4 14 52
18 105 3 54 9 126 13 160 l6 63 -449 2 -449 3 -11 125 c-7 69 -10 128 -7 133
2 4 215 7 472 7 l468 0 7 88 c4 48 9 106 12 130 l6 42 -495 0 -495 0 -5 33
c-4 17 -9 76 -13 130 l-7 97 652 0 651 0 0 -22z"/>
<path d="M7560 7298 c1 -13 5 -70 10 -128 12 -131 54 -611 80 -915 11 -126 26
-309 35 -405 8 -96 20 -240 27 -319 l12 -143 51 -38 c71 -54 135 -89 255 -142
354 -157 768 -162 1139 -14 133 53 328 175 336 209 2 12 11 108 20 212 8 105
24 291 35 415 36 418 51 584 70 815 11 127 24 275 29 330 6 55 11 110 11 123
l0 22 -1055 0 -1055 0 0 -22z m1720 -435 c0 -21 -5 -86 -12 -145 l-11 -108
-500 0 -499 0 6 -97 c4 -54 9 -110 12 -125 l6 -28 480 0 481 0 -6 -42 c-3 -24
-11 -104 -17 -178 -30 -372 -50 -593 -54 -598 -3 -2 -17 -6 -196 -56 -52 -14
-124 -34 -160 -45 -36 -10 -93 -26 -126 -36 l-62 -18 -183 52 c-342 97 -364
103 -371 110 -6 6 -38 328 -38 385 l0 26 139 0 c162 0 151 9 151 -126 l0 -80
141 -39 140 -38 72 16 c125 29 207 53 216 63 8 8 34 304 28 311 -2 1 -202 3
-446 3 l-442 1 -9 22 c-5 12 -16 119 -25 237 -9 118 -23 282 -31 364 -8 82
-14 159 -14 172 l0 24 338 3 c185 1 484 3 665 5 l327 2 0 -37z"/>
<path d="M5787 3754 c-4 -4 -7 -79 -7 -166 0 -87 -2 -158 -5 -158 -2 0 -19 7
-38 16 l-34 16 -111 -63 -112 -64 2 -135 3 -134 105 -63 c58 -34 109 -63 113
-63 4 0 57 28 117 63 l109 62 1 311 0 311 -62 34 c-35 19 -65 35 -69 37 -3 1
-8 -1 -12 -4z m-43 -485 c33 -19 36 -25 36 -67 0 -44 -3 -48 -38 -69 l-38 -21
-37 21 c-34 19 -37 24 -37 68 0 42 3 49 33 67 41 26 39 26 81 1z"/>
<path d="M4363 3404 l-113 -66 0 -169 c0 -93 4 -169 9 -169 4 0 38 16 74 37
l66 36 3 91 3 91 38 20 37 20 38 -20 37 -20 3 -91 3 -90 64 -37 c35 -20 69
-37 75 -37 6 0 10 58 10 169 l0 168 -115 67 c-63 36 -115 66 -117 65 -2 0 -54
-29 -115 -65z"/>
<path d="M6198 3398 l-108 -62 0 -132 0 -132 105 -61 c57 -34 111 -61 119 -61
27 0 148 72 138 82 -5 5 -54 35 -108 66 l-99 57 0 48 c0 45 2 49 37 69 l37 21
39 -25 c33 -23 38 -30 34 -56 -2 -16 0 -32 5 -35 5 -3 39 12 76 34 66 40 67
41 67 84 l0 43 -106 61 c-58 34 -111 61 -117 61 -7 0 -60 -28 -119 -62z"/>
<path d="M6288 3239 c-47 -27 -1 -93 48 -70 30 13 33 56 5 71 -24 12 -31 12
-53 -1z"/>
</g>
</svg>
